# xmcd CD database file
#
# Track frame offsets:
#	150
#	19280
#	42473
#	63189
#	92362
#	110294
#	126680
#	145425
#
# Disc length: 2171 seconds
#
# Revision: 0
# Processed by: cddbd v1.5.2PL0 Copyright (c) Steve Scherf et al.
# Submitted via: CDex 1.51
#
DISCID=70087908
DTITLE=Schulzone - Schulzone
DYEAR=2000
DGENRE=Rhythmic Soul
TTITLE0=scat song
TTITLE1=dirty
TTITLE2=silence
TTITLE3=flush
TTITLE4=midnight train
TTITLE5=legalize brass
TTITLE6=electosmog
TTITLE7=turkish delight
EXTD=YEAR: 2000
EXTT0=
EXTT1=
EXTT2=
EXTT3=
EXTT4=
EXTT5=
EXTT6=
EXTT7=
PLAYORDER=
